<svg width="392" height="79" viewBox="0 0 392 79" fill="none" xmlns="http://www.w3.org/2000/svg">
<g clip-path="url(#clip0_54_49)">
<path d="M10.1756 25.3329C12.4047 24.3129 14.6168 23.8239 16.9565 23.8239C19.3218 23.8239 21.5424 24.296 23.7375 25.2486C25.873 26.2181 27.7022 27.4911 29.1826 29.0423C30.7396 30.6777 32.0073 32.6251 32.8496 34.7158C33.5898 36.3766 34.0322 38.265 34.1598 40.3304L34.2024 41.0638H38.8903L38.8478 40.2376C38.7031 37.6411 38.1586 35.1879 37.2312 32.9708C36.2103 30.4417 34.6788 28.0896 32.5603 25.7882C30.7056 23.6975 28.536 22.1716 25.5667 20.8565C23.1844 19.6762 20.3683 19.103 16.9565 19.103C12.3962 19.103 8.33789 20.4012 4.59435 23.0568V2.36047C4.59435 0.885178 3.73503 0 2.29717 0C0.816773 0 0 0.843026 0 2.36047V61.5915C0 63.1174 0.816773 63.9604 2.29717 63.9604C3.73503 63.9604 4.59435 63.0752 4.59435 61.5915V60.2174C6.20237 61.3049 7.89547 62.1985 9.74172 62.9319C12.0134 63.8002 14.3701 64.2133 16.9565 64.2133C19.9684 64.2133 22.9462 63.5811 25.5412 62.384C28.2808 61.17 30.5694 59.5851 32.5433 57.545C34.4661 55.5554 35.955 53.2708 37.2312 50.3624L37.7587 49.1316H32.6114L32.3987 49.5784C31.5734 51.315 30.4588 52.9336 29.1826 54.274C27.7022 55.8168 25.873 57.0897 23.7545 58.0592C21.5509 59.0203 19.3303 59.4924 16.9651 59.4924C14.6338 59.4924 12.4132 58.995 10.1841 57.9834C8.11668 57.0392 6.2364 55.7156 4.60286 54.0633V29.2446C6.10027 27.6597 7.98055 26.3446 10.1756 25.3329Z" fill="#161616"/>
<path d="M82.6387 49.6121C81.6688 51.7618 80.5457 53.49 79.2015 54.8894C77.5169 56.5586 75.7132 57.7979 73.6287 58.6999C71.7314 59.6357 69.4938 60.1162 66.9669 60.1162C64.457 60.1162 62.1768 59.6357 60.1775 58.6831C58.1355 57.7895 56.3233 56.5502 54.6557 54.8979C53.2349 53.4142 52.0438 51.6269 51.1164 49.6037L50.9037 49.1484H45.8329L46.2157 50.1938C46.3093 50.4551 46.4114 50.7165 46.5135 50.9862C47.6961 53.7767 49.2616 56.1624 51.295 58.27C53.4136 60.4619 55.7022 62.0467 58.3057 63.109C61.1644 64.3398 63.9976 64.9299 66.9669 64.9299C69.9277 64.9299 72.8204 64.3145 75.5175 63.1174C78.189 62.0552 80.5627 60.4197 82.5451 58.27C84.5785 56.1624 86.144 53.7851 87.3266 50.9778C87.4287 50.7165 87.5223 50.4551 87.6244 50.1938L88.0073 49.1484H82.8429L82.6387 49.6121Z" fill="#161616"/>
<path d="M87.3266 33.308C86.144 30.5176 84.5785 28.1318 82.5536 26.0327C80.5542 23.9588 78.1975 22.3318 75.5515 21.1937C72.8204 19.9797 69.9362 19.3643 66.9669 19.3643C63.9976 19.3643 61.1644 19.9629 58.2887 21.1937C55.7022 22.3402 53.4221 23.9167 51.295 26.0327C49.2616 28.1402 47.7046 30.5176 46.5135 33.3248C45.6202 35.542 45.0586 37.8603 44.863 40.2208L44.7864 41.0638H49.5594L49.6275 40.3641C49.8061 38.6275 50.2315 36.8655 50.8952 35.1626C51.8396 33.0298 53.1413 31.074 54.6387 29.5059C56.3148 27.8452 58.127 26.5975 60.1945 25.6954C62.1768 24.7513 64.4485 24.2792 66.9584 24.2792C69.4853 24.2792 71.7314 24.7513 73.6627 25.7123C75.7047 26.6059 77.5169 27.8452 79.1844 29.4975C80.6138 30.9897 81.8475 32.8949 82.8514 35.1626C83.5661 36.8403 84.0255 38.5937 84.2042 40.3725L84.2723 41.0722H89.0453L88.9687 40.2292C88.79 37.8519 88.2285 35.5336 87.3266 33.308Z" fill="#161616"/>
<path d="M136.895 33.308C135.712 30.5176 134.146 28.1318 132.122 26.0327C130.122 23.9588 127.765 22.3318 125.119 21.1937C122.388 19.9797 119.504 19.3643 116.535 19.3643C113.565 19.3643 110.732 19.9629 107.857 21.1937C105.27 22.3402 102.99 23.9167 100.854 26.0327C98.821 28.1402 97.264 30.5176 96.0729 33.3248C95.1796 35.542 94.618 37.8603 94.4224 40.2208L94.3458 41.0638H99.1188L99.1869 40.3641C99.3655 38.6275 99.7909 36.8655 100.455 35.1626C101.399 33.0298 102.701 31.074 104.198 29.5059C105.874 27.8452 107.686 26.5975 109.754 25.6954C111.736 24.7513 114.008 24.2792 116.518 24.2792C119.045 24.2792 121.291 24.7513 123.222 25.7123C125.264 26.6059 127.076 27.8452 128.744 29.4975C130.173 30.9897 131.407 32.8949 132.411 35.1626C133.126 36.8403 133.585 38.5937 133.764 40.3725L133.832 41.0722H138.605L138.528 40.2292C138.358 37.8519 137.796 35.5336 136.895 33.308Z" fill="#161616"/>
<path d="M132.207 49.6121C131.237 51.7618 130.114 53.49 128.769 54.8894C127.085 56.5586 125.281 57.7979 123.197 58.6999C121.299 59.6357 119.062 60.1162 116.535 60.1162C114.025 60.1162 111.745 59.6357 109.745 58.6831C107.703 57.7895 105.891 56.5502 104.224 54.8979C102.803 53.4142 101.612 51.6269 100.684 49.6037L100.472 49.1484H95.4008L95.7837 50.1938C95.8772 50.4551 95.9793 50.7165 96.0814 50.9862C97.2641 53.7767 98.8295 56.1624 100.854 58.27C102.973 60.4619 105.27 62.0467 107.865 63.109C110.724 64.3398 113.557 64.9299 116.526 64.9299C119.487 64.9299 122.38 64.3145 125.077 63.1174C127.748 62.0552 130.122 60.4197 132.105 58.27C134.138 56.1624 135.703 53.7851 136.886 50.9778C136.988 50.7165 137.09 50.4551 137.184 50.1938L137.567 49.1484H132.402L132.207 49.6121Z" fill="#161616"/>
<path d="M146.943 62.6537C146.943 64.188 147.802 65.1069 149.24 65.1069C150.754 65.1069 151.622 64.2133 151.622 62.6537V49.1484H146.934V62.6537H146.943Z" fill="#161616"/>
<path d="M166.213 19.887C162.98 19.887 160.113 20.4856 157.459 21.7079C155.221 22.669 153.298 23.8998 151.631 25.4341V21.8091C151.631 21.1853 151.392 20.5699 150.992 20.1568C150.593 19.6594 149.937 19.3559 149.24 19.3559C148.568 19.3559 147.989 19.6341 147.572 20.1568C147.172 20.5783 146.934 21.1853 146.934 21.8091V41.0554H151.622V32.8612C153.315 30.1804 155.332 28.233 157.799 26.8926C160.385 25.4425 163.21 24.7091 166.205 24.7091C166.945 24.7091 167.49 24.3719 167.83 24.1106L167.992 23.9504C168.272 23.5795 168.596 23.0484 168.596 22.2475C168.596 21.6068 168.34 20.9745 167.923 20.553C167.328 19.9629 166.698 19.887 166.213 19.887Z" fill="#161616"/>
<path d="M209.281 30.9053C207.869 28.6629 206.269 26.842 204.414 25.3582C202.594 23.8239 200.484 22.6268 198.144 21.7922C195.719 20.8649 193.337 20.4181 190.844 20.4181C187.883 20.4181 184.991 21.0335 182.268 22.239C179.741 23.3097 177.41 24.9451 175.351 27.0864C173.343 29.1687 171.786 31.5123 170.569 34.2859C169.821 36.1405 169.319 38.1301 169.081 40.1871L168.978 41.0554H209.851C210.489 41.0554 211.076 40.7519 211.519 40.1871C211.919 39.7655 212.157 39.1333 212.157 38.442V38.1807L212.14 38.0205C211.621 35.542 210.659 33.1478 209.281 30.9053ZM206.695 36.2586H174.823C175.351 34.9687 176.032 33.6958 176.916 32.3891C178.133 30.8126 179.324 29.6071 180.634 28.6123C182.132 27.567 183.74 26.7408 185.45 26.1422C187.024 25.5184 188.734 25.2318 190.844 25.2318C194.588 25.2318 197.863 26.3024 200.841 28.4943C203.572 30.644 205.495 33.1899 206.695 36.2586Z" fill="#161616"/>
<path d="M208.43 52.0569C207.903 51.6775 207.324 51.5511 206.678 51.6775C205.997 51.8124 205.444 52.2171 205.189 52.7313C203.53 55.3194 201.445 57.3342 198.978 58.7168C196.459 60.1331 193.796 60.8159 190.836 60.8159C188.343 60.8159 186.122 60.3776 184.055 59.4755C181.885 58.4892 180.056 57.1909 178.61 55.5976C176.95 53.861 175.751 52.0147 174.934 49.924L174.611 49.14H169.659L169.982 50.1516C170.178 50.7586 170.365 51.2813 170.561 51.7787C171.769 54.5354 173.326 56.879 175.334 58.9613C177.274 60.9677 179.528 62.5526 182.242 63.8002C184.846 64.9552 187.73 65.5369 190.827 65.5369C194.63 65.5369 198.008 64.6686 201.164 62.8813C204.389 61.052 207.052 58.506 209.094 55.3025C209.885 54.0296 209.621 52.7903 208.43 52.0569Z" fill="#161616"/>
<path d="M235.18 41.0554L219.321 20.1315C218.751 19.3222 218.121 19.0777 217.687 19.0187C217.287 18.9597 216.658 18.9934 215.968 19.5245L215.688 19.8448C215.441 20.1568 215.169 20.5024 215.05 21.0672C214.956 21.6236 214.896 22.2643 215.373 22.8966L229.062 41.0554H235.18Z" fill="#161616"/>
<path d="M255.182 19.2632C254.552 18.9512 253.999 18.8754 253.429 19.0187C252.723 19.162 252.17 19.6004 251.898 20.2411L240.693 41.0554H246.155L256.033 22.5678C256.365 22.0198 256.45 21.4044 256.297 20.6541C256.152 20.064 255.727 19.5329 255.182 19.2632Z" fill="#161616"/>
<path d="M222.452 75.8724L222.384 76.0747C222.281 76.5974 222.205 77.1959 222.443 77.7017C222.766 78.393 223.753 79 224.672 79C224.885 79 225.089 78.9663 225.285 78.8988L225.404 78.8482C225.642 78.7387 226.272 78.4352 226.603 77.6512L241.833 49.1484H236.252L222.452 75.8724Z" fill="#161616"/>
<path d="M265.928 1.32355C265.281 1.32355 264.643 1.57646 264.218 1.98954L264.141 2.07384C263.886 2.41105 263.537 2.95059 263.537 3.68402V41.0554H268.216V3.68402C268.216 3.2035 268.14 2.57966 267.544 1.98954C267.11 1.55116 266.549 1.32355 265.928 1.32355Z" fill="#161616"/>
<path d="M284.152 49.1484H278.137L288.729 63.2691C289.206 63.9857 289.988 64.4072 290.805 64.4072C291.282 64.4072 291.699 64.2302 292.047 64.0616L292.184 63.9773C293.324 63.1005 293.545 61.954 292.779 60.6979L284.152 49.1484Z" fill="#161616"/>
<path d="M291.231 25.5606C291.231 24.8271 290.89 24.2876 290.627 23.9504L290.55 23.8661C289.954 23.276 289.316 23.2001 288.84 23.2001C288.363 23.2001 287.725 23.276 287.121 23.8829L270.445 41.0554H277.167L290.559 27.1623C291.001 26.7239 291.231 26.176 291.231 25.5606Z" fill="#161616"/>
<path d="M263.545 49.1484V62.7465C263.545 63.3281 263.758 63.9351 264.15 64.4494L264.218 64.5337C264.643 64.9552 265.281 65.1997 265.928 65.1997C266.549 65.1997 267.11 64.972 267.553 64.5337C268.004 64.0869 268.225 63.5052 268.225 62.7465V49.1484H263.545Z" fill="#161616"/>
<path d="M340.679 33.308C339.497 30.5176 337.931 28.1318 335.906 26.0327C333.907 23.9588 331.55 22.3318 328.904 21.1937C326.173 19.9797 323.289 19.3643 320.32 19.3643C317.35 19.3643 314.517 19.9629 311.641 21.1937C309.055 22.3402 306.775 23.9167 304.639 26.0327C302.606 28.1402 301.049 30.5176 299.858 33.3248C298.964 35.542 298.403 37.8603 298.207 40.2208L298.131 41.0638H302.904L302.972 40.3641C303.15 38.6275 303.576 36.8655 304.239 35.1626C305.184 33.0298 306.486 31.074 307.983 29.5059C309.659 27.8452 311.471 26.5975 313.539 25.6954C315.521 24.7513 317.793 24.2792 320.303 24.2792C322.83 24.2792 325.076 24.7513 327.007 25.7123C329.049 26.6059 330.861 27.8452 332.529 29.4975C333.958 30.9897 335.192 32.8949 336.196 35.1626C336.91 36.8403 337.37 38.5937 337.548 40.3725L337.617 41.0722H342.398L342.321 40.2292C342.143 37.8519 341.581 35.5336 340.679 33.308Z" fill="#161616"/>
<path d="M335.992 49.6121C335.022 51.7534 333.899 53.49 332.554 54.8894C330.87 56.5586 329.066 57.7979 326.981 58.6999C325.084 59.6357 322.847 60.1162 320.32 60.1162C317.81 60.1162 315.53 59.6357 313.53 58.6831C311.488 57.7895 309.676 56.5502 308.009 54.8979C306.588 53.4142 305.397 51.6269 304.469 49.6037L304.256 49.1484H300.3L299.194 49.1906L299.577 50.2359C299.671 50.4804 299.756 50.7333 299.858 50.9862C301.04 53.7767 302.606 56.1624 304.631 58.27C306.749 60.4619 309.047 62.0467 311.641 63.109C314.5 64.3398 317.333 64.9299 320.303 64.9299C323.263 64.9299 326.156 64.3145 328.853 63.1174C331.525 62.0552 333.899 60.4197 335.881 58.27C337.914 56.1624 339.48 53.7851 340.662 50.9778C340.765 50.7165 340.867 50.4551 340.96 50.1938L341.343 49.1484H336.179L335.992 49.6121Z" fill="#161616"/>
<path d="M390.256 33.3164L390.247 33.308C389.065 30.5176 387.499 28.1318 385.474 26.0327C383.475 23.9588 381.118 22.3318 378.472 21.1937C375.741 19.9797 372.848 19.3643 369.888 19.3643C366.918 19.3643 364.085 19.9629 361.218 21.1937C358.631 22.3402 356.351 23.9167 354.216 26.0327C352.182 28.1402 350.625 30.5176 349.434 33.3248C348.541 35.542 347.979 37.8603 347.784 40.2208L347.707 41.0638H352.48L352.548 40.3641C352.727 38.6275 353.152 36.8655 353.816 35.1626C354.76 33.0298 356.062 31.074 357.559 29.5059C359.235 27.8452 361.048 26.5975 363.115 25.6954C365.098 24.7513 367.369 24.2792 369.879 24.2792C372.406 24.2792 374.652 24.7513 376.583 25.7123C378.625 26.6059 380.438 27.8452 382.105 29.4975C383.534 30.9897 384.768 32.8949 385.772 35.1626C386.734 37.4135 387.218 39.7656 387.218 42.1682C387.218 44.5624 386.734 46.9228 385.772 49.1737C384.777 51.5005 383.577 53.3889 382.122 54.9147C380.438 56.5839 378.634 57.8232 376.549 58.7252C374.652 59.661 372.414 60.1415 369.888 60.1415C367.378 60.1415 365.098 59.661 363.098 58.7084C361.056 57.8147 359.244 56.5755 357.576 54.9232C356.156 53.4394 354.964 51.6522 354.037 49.629L353.824 49.1737H349.868L348.762 49.2243L349.145 50.2697C349.239 50.5141 349.324 50.7586 349.426 51.0115C350.608 53.8019 352.174 56.1877 354.207 58.2953C356.326 60.4871 358.623 62.072 361.218 63.1342C364.077 64.3651 366.91 64.9552 369.879 64.9552C372.84 64.9552 375.733 64.3398 378.43 63.1427C381.101 62.0805 383.475 60.445 385.457 58.2953C387.491 56.1877 389.056 53.8104 390.239 51.0031C391.396 48.1368 391.983 45.1694 391.983 42.1766C391.983 39.1839 391.413 36.1827 390.256 33.3164Z" fill="#161616"/>
</g>
<defs>
<clipPath id="clip0_54_49">
<rect width="392" height="79" fill="white"/>
</clipPath>
</defs>
</svg>
