<svg width="27" height="26" viewBox="0 0 27 26" fill="none" xmlns="http://www.w3.org/2000/svg">
<path d="M20.2148 4.55966C19.3888 4.55966 18.7166 5.23187 18.7166 6.05795C18.7166 6.88403 19.3888 7.55624 20.2148 7.55624C21.0409 7.55624 21.7131 6.88403 21.7131 6.05795C21.7131 5.23187 21.0409 4.55966 20.2148 4.55966Z" fill="#161616"/>
<path d="M13.5575 6.4872C10.083 6.4872 7.26465 9.3137 7.26465 12.78C7.26465 16.2544 10.0911 19.0728 13.5575 19.0728C17.0319 19.0728 19.8503 16.2463 19.8503 12.78C19.8503 9.3056 17.0238 6.4872 13.5575 6.4872ZM13.5575 16.8132C11.3303 16.8132 9.52423 15.0072 9.52423 12.78C9.52423 10.5528 11.3303 8.74678 13.5575 8.74678C15.7765 8.74678 17.5907 10.5528 17.5907 12.78C17.5907 15.0072 15.7765 16.8132 13.5575 16.8132Z" fill="#161616"/>
<path d="M18.5546 25.56H8.35008C4.11437 25.56 0.672363 22.118 0.672363 17.8823V7.67772C0.672363 3.44201 4.11437 0 8.35008 0H18.5546C22.7903 0 26.2324 3.44201 26.2324 7.67772V17.8823C26.2324 22.1099 22.7823 25.56 18.5546 25.56ZM8.35008 2.40536C5.44259 2.40536 3.07773 4.77023 3.07773 7.67772V17.8823C3.07773 20.7898 5.44259 23.1546 8.35008 23.1546H18.5546C21.4621 23.1546 23.827 20.7898 23.827 17.8823V7.67772C23.827 4.77023 21.4621 2.40536 18.5546 2.40536H8.35008V2.40536Z" fill="#161616"/>
</svg>
